<svg height="480pt" viewBox="0 -39 480 479" width="480pt" xmlns="http://www.w3.org/2000/svg"><path d="m448 244.5v-65.601562l-104-34.398438-104 34.398438v65.601562c0 60 32 115.199219 83.199219 144.800781l20.800781 12 20.800781-12c51.199219-29.601562 83.199219-84.800781 83.199219-144.800781zm-91.199219 131.199219-12.800781 7.199219-12.800781-7.199219c-46.398438-27.199219-75.199219-77.597657-75.199219-131.199219v-54.398438l88-29.601562 88 29.601562v54.398438c0 54.398438-28.800781 104-75.199219 131.199219zm0 0"/><path d="m400 230.101562c0 56-23.199219 96.796876-68 123.199219l8 13.597657c50.398438-28.796876 76-75.199219 76-136.796876v-13.601562h-16zm0 0"/><path d="m24 328.5h216v-16h-216c-4.800781 0-8-3.199219-8-8v-8h216v-16h-160v-232h336v96h16v-112h-368v248h-16v-256c0-4.800781 3.199219-8 8-8h384c4.800781 0 8 3.199219 8 8v128h16v-128c0-13.601562-10.398438-24-24-24h-384c-13.601562 0-24 10.398438-24 24v256h-24v24c0 13.601562 10.398438 24 24 24zm0 0"/><path d="m232 152.5h-16v-88h-16v88h-16v-70.398438h-16v70.398438h-16v-52.800781h-16v52.800781h-16v-36h-16v36h-16v16h144zm0 0"/><path d="m88 184.5h64v16h-64zm0 0"/><path d="m88 216.5h104v16h-104zm0 0"/><path d="m88 248.5h104v16h-104zm0 0"/><path d="m208 216.5h16v16h-16zm0 0"/><path d="m208 248.5h16v16h-16zm0 0"/><path d="m376 136.5h16c0-40-32-72-72-72s-72 32-72 72h16c0-31.199219 24.800781-56 56-56s56 24.800781 56 56zm0 0"/><path d="m314.460938 122.722656 23.757812-23.757812 11.3125 11.3125-23.757812 23.761718zm0 0"/><path d="m456 296.5h8v8c0 4.800781-3.199219 8-8 8h-8v16h8c13.601562 0 24-10.398438 24-24v-24h-24zm0 0"/></svg>