<?xml version="1.0"?>
<svg xmlns="http://www.w3.org/2000/svg" id="Outline" viewBox="0 0 512 512" width="512" height="512"><path d="M56,496H456a40.045,40.045,0,0,0,40-40V184a40.045,40.045,0,0,0-40-40h-8V104a8,8,0,0,0-2.343-5.657l-80-80A8,8,0,0,0,360,16H152a40.045,40.045,0,0,0-40,40V96H56a40.045,40.045,0,0,0-40,40V456A40.045,40.045,0,0,0,56,496ZM456,160a24.028,24.028,0,0,1,24,24V456a24.028,24.028,0,0,1-24,24H424a24.028,24.028,0,0,1-24-24v-8h8a40.045,40.045,0,0,0,40-40V160ZM368,43.313,420.687,96H392a24.027,24.027,0,0,1-24-24ZM128,56a24.027,24.027,0,0,1,24-24H352V72a40.045,40.045,0,0,0,40,40h40V408a24.027,24.027,0,0,1-24,24h-8V232a40.045,40.045,0,0,0-40-40H192V136a40.045,40.045,0,0,0-40-40H128ZM32,136a24.028,24.028,0,0,1,24-24h96a24.028,24.028,0,0,1,24,24v64a8,8,0,0,0,8,8H360a24.028,24.028,0,0,1,24,24V456a39.792,39.792,0,0,0,8.019,24H56a24.028,24.028,0,0,1-24-24Z"/><path d="M272,152a8,8,0,0,0,8,8H392a8,8,0,0,0,0-16H280A8,8,0,0,0,272,152Z"/><path d="M224,112h56a8,8,0,0,0,0-16H224a8,8,0,0,0,0,16Z"/><path d="M248,144H232a8,8,0,0,0,0,16h16a8,8,0,0,0,0-16Z"/><path d="M128,336h24v88a8,8,0,0,0,8,8h48a8,8,0,0,0,8-8V336h24a8,8,0,0,0,6.021-13.268l-56-64a8,8,0,0,0-12.042,0l-56,64A8,8,0,0,0,128,336Zm56-59.851L222.37,320H208a8,8,0,0,0-8,8v88H168V328a8,8,0,0,0-8-8H145.63Z"/></svg>
