<svg id="Layer_1" height="512" viewBox="0 0 512 512" width="512" xmlns="http://www.w3.org/2000/svg" data-name="Layer 1"><path d="m138.193 47.614q.189.012.375.012a6 6 0 0 0 5.983-5.626l.886-14.389.006-.109a8.575 8.575 0 0 0 -2.153-6.051c-.036-.043-.061-.093-.1-.136-.065-.073-.145-.125-.213-.194a8.568 8.568 0 0 0 -5.657-2.591c-.067 0-.133-.006-.2-.007l-15.664-.356a6 6 0 1 0 -.272 12l3.082.071-91.509 82.1a6 6 0 1 0 8.013 8.932l91.956-82.5-.154 2.5a6 6 0 0 0 5.621 6.344z"/><path d="m315.939 72.766h105.146a6 6 0 0 0 0-12h-105.146a6 6 0 1 0 0 12z"/><path d="m315.939 110.843h105.146a6 6 0 0 0 0-12h-105.146a6 6 0 0 0 0 12z"/><path d="m261.68 149.9h.073l163.978-1.949a6 6 0 0 0 -.07-12h-.073l-163.977 1.949a6 6 0 0 0 .069 12z"/><path d="m425.613 175h-120.086a6 6 0 0 0 0 12h120.086a6 6 0 0 0 0-12z"/><path d="m425.613 213.075h-114.24a6 6 0 0 0 0 12h114.24a6 6 0 0 0 0-12z"/><path d="m385.665 251.153h-74.292a6 6 0 0 0 0 12h74.292a6 6 0 0 0 0-12z"/><path d="m276.144 92.232a6.2 6.2 0 1 1 0 12.383 6.517 6.517 0 0 1 -5.184-2.492 6 6 0 1 0 -9.46 7.377 18.357 18.357 0 0 0 8.8 6.181 6 6 0 0 0 12-.08v-.05a18.144 18.144 0 0 0 -6.152-35.323 6.19 6.19 0 1 1 -.189-12.374c.114.006.226.017.341.017.057 0 .113-.007.17-.008a6.493 6.493 0 0 1 4.863 2.475 6 6 0 0 0 9.46-7.383 18.377 18.377 0 0 0 -8.493-6.082v-.8a6 6 0 0 0 -12 0v.727a18.15 18.15 0 0 0 5.848 35.433z"/><path d="m206.424 102.953a6 6 0 0 0 6-6v-3.4a6 6 0 1 0 -12 0v3.4a6 6 0 0 0 6 6z"/><path d="m200.424 147.882a6 6 0 0 0 12 0v-32.957a6 6 0 1 0 -12 0z"/><path d="m467.31 296.6-.083-239.84c0-18.609-15.648-33.748-34.882-33.748h-222.481a24.623 24.623 0 0 0 -24.6 24.6v26.86a6 6 0 0 0 6 6h31.196v80.942c-1.885-.049-3.782-.08-5.692-.08-17.966 0-34.963 2.182-48.11 6.149v-107.041a8.881 8.881 0 0 0 -8.871-8.87h-19.959a8.881 8.881 0 0 0 -8.871 8.87v152.21h-11.017v-103.502a8.881 8.881 0 0 0 -8.871-8.871h-19.958a8.882 8.882 0 0 0 -8.871 8.871v103.5h-10.04v-74.275a8.881 8.881 0 0 0 -8.871-8.871h-19.96a8.88 8.88 0 0 0 -8.871 8.871v74.277h-12.498v-161.093a6 6 0 0 0 -12 0v167.093a6 6 0 0 0 6 6h127.179v86.848q-1.934-.257-3.876-.471a63.923 63.923 0 0 0 1.056-11.49c0-35.568-29.239-64.505-65.18-64.505s-65.179 28.936-65.179 64.504a64.409 64.409 0 0 0 32.461 55.753v98.856c0 6.079 4.159 14.653 23.971 20.981 13.34 4.261 30.961 6.607 49.618 6.607s36.278-2.346 49.618-6.607c19.812-6.328 23.971-14.9 23.971-20.981v-2.913a120.888 120.888 0 0 0 23 2.118 144.219 144.219 0 0 0 33.749-4.043 20.214 20.214 0 0 0 6.317 7.343 20.3 20.3 0 0 0 11.827 3.781 20.729 20.729 0 0 0 3.348-.278 20.19 20.19 0 0 0 8.243 13.21 20.281 20.281 0 0 0 11.82 3.779 20.618 20.618 0 0 0 3.339-.277 20.319 20.319 0 0 0 20.064 16.977 20.442 20.442 0 0 0 16.567-8.394l4.073-5.6 7.668 6.082a21.961 21.961 0 0 0 30.644-2.308 21.449 21.449 0 0 0 5.1-11.151 21.923 21.923 0 0 0 22.529-6.619 21.453 21.453 0 0 0 5.1-11.151 21.922 21.922 0 0 0 22.529-6.62 21.458 21.458 0 0 0 4.968-10.375 22.022 22.022 0 0 0 24.258-6.129l.263-.3a21.115 21.115 0 0 0 -2.209-29.964l-4.608-3.941a46.457 46.457 0 0 0 8.483-7.449 12.885 12.885 0 0 0 10.317 5.167 13.02 13.02 0 0 0 5.15-1.066l22-9.443a12.837 12.837 0 0 0 6.575-17.29zm-407.11-83.948h-13.7v-71.152h13.7zm47.742 0h-13.702v-100.373h13.7zm324.403-177.638c12.618 0 22.882 9.756 22.882 21.75l.075 214.464-7.858-16.6a12.981 12.981 0 0 0 -16.416-6.494l-22.613 8.826a12.839 12.839 0 0 0 -6.962 17.481l2.268 4.763-.5.209c-8.587 1.76-14.583 1.5-23.467-.971l-22.591-6.29a36.122 36.122 0 0 0 -20.533.329l-21.8 6.832a35.974 35.974 0 0 0 -11.927 6.4 45.122 45.122 0 0 0 -13.6-1.87l1.048-94.851c0-.022 0-.044 0-.066 0-6.078-4.158-14.652-23.97-20.98a147.614 147.614 0 0 0 -31.926-5.879v-114.458a24.434 24.434 0 0 0 -3.481-12.595zm-235.077 33.458v-20.863a12.6 12.6 0 0 1 25.192 0v20.863zm19.5 104.862c40.625 0 61.578 10.921 61.588 15.583v.008c-.011 4.664-20.965 15.584-61.588 15.584s-61.589-10.926-61.589-15.588 20.954-15.587 61.589-15.587zm1.083 212.566a.9.9 0 0 1 -.552.442.949.949 0 0 1 -.756-.083l-20.89-11.662a.826.826 0 0 1 -.357-1.118l58.535-111.02a.9.9 0 0 1 .567-.448 1.036 1.036 0 0 1 .273-.037.949.949 0 0 1 .5.139l20.761 12.516a.829.829 0 0 1 .329 1.105zm12.747 1.576 7.19 5.941-10.3 14.165c-11.764 3.58-29.455 1.428-37.852.067v-22.682c.058.033.11.072.168.1l20.889 11.662a12.886 12.886 0 0 0 6.307 1.658 13.066 13.066 0 0 0 3.7-.538 12.822 12.822 0 0 0 7.757-6.33zm-63.449-103.709c13.341 4.26 30.962 6.607 49.619 6.607h.771c3.186 0 5.687 0 8.041-.067l-13.052 24.755c-6.691-.2-17.678-.911-28.667-2.418-17.033-2.338-25.033-5.344-28.682-7.334v-26.564a65.321 65.321 0 0 0 11.97 5.021zm-11.97-20.981v-20.792a65.251 65.251 0 0 0 11.97 5.021c13.341 4.26 30.962 6.607 49.619 6.607a210.972 210.972 0 0 0 32.3-2.364 12.936 12.936 0 0 0 -5.848 5.6l-11.083 21.02a125.53 125.53 0 0 1 -14.967.5h-.4c-40.637-.004-61.591-10.93-61.591-15.592zm106.184-10.951a12.961 12.961 0 0 0 -5.543-1.792c8.571-1.761 16.125-4.2 21.941-7.333l-.209 18.884zm1.232-15.883c-11.947 3.656-28.222 5.67-45.827 5.67-40.635 0-61.589-10.926-61.589-15.587v-21.155a65.182 65.182 0 0 0 11.97 5.021c13.341 4.261 30.962 6.608 49.619 6.608s36.278-2.347 49.618-6.608a65.636 65.636 0 0 0 11.792-4.924l-.241 21.847c-.013 1.163-2.846 5.304-15.337 9.128zm-119.638-23.3v-149.08h13.7v108.6c-10.872 5.581-13.478 11.944-13.478 16.748v23.731zm-120.957 86.886c0-28.951 23.856-52.505 53.179-52.505s53.18 23.554 53.18 52.505-23.856 52.5-53.18 52.5-53.179-23.549-53.179-52.5zm155.635 154.609c0 4.663-20.954 15.588-61.589 15.588s-61.589-10.925-61.589-15.588v-20.247a65.256 65.256 0 0 0 11.97 5.02c13.34 4.261 30.961 6.607 49.618 6.607s36.278-2.346 49.618-6.607a65.264 65.264 0 0 0 11.971-5.021zm0-36.207c0 4.661-20.954 15.586-61.589 15.586-40.6 0-61.552-10.907-61.587-15.574v-22.976a65.264 65.264 0 0 0 11.969 5.024c13.34 4.261 30.961 6.608 49.618 6.608s36.278-2.347 49.618-6.608a65.268 65.268 0 0 0 11.971-5.02zm0-38.924c0 4.661-20.954 15.587-61.589 15.587-40.565 0-61.513-10.887-61.586-15.562v-18.359a65.778 65.778 0 0 0 30.58 2.622c8.937 1.566 16.722 1.661 26.924 1.661h4.081c18.656 0 36.278-2.347 49.618-6.608a65.2 65.2 0 0 0 11.971-5.02zm-61.589-26.053h-4.382a64.972 64.972 0 0 0 24.315-30.222c29.581 2.9 41.656 11.38 41.656 14.635 0 4.661-20.954 15.587-61.589 15.587zm66.47-28.394c8.545 1.162 17.117 1.867 23.822 2.233l-16.7 31.68v-21.106c-.003-5.019-2.667-9.262-7.122-12.807zm7.119 114.407v-19.176a148.341 148.341 0 0 0 21.406 1.711 91.468 91.468 0 0 0 9.894-.516 20.425 20.425 0 0 0 .116 5.668 20.2 20.2 0 0 0 8.26 13.291c.138.1.283.182.423.277-12.429 1.639-26.634 1.742-40.099-1.255zm58.44-10.818-.006.01-.088.12a8.443 8.443 0 0 1 -11.7 1.9 8.334 8.334 0 0 1 -1.9-11.686l21.707-29.848a8.447 8.447 0 0 1 11.709-1.9 8.326 8.326 0 0 1 1.9 11.676zm23.325 16.823a8.457 8.457 0 0 1 -11.719 1.9 8.32 8.32 0 0 1 -1.9-11.667l15.736-21.637a8.439 8.439 0 0 1 11.7-1.9 8.332 8.332 0 0 1 1.9 11.686zm23.492 16.588-.007.01-.087.12a8.443 8.443 0 0 1 -11.7 1.9 8.335 8.335 0 0 1 -1.9-11.683l10.831-14.893a8.446 8.446 0 0 1 11.708-1.9 8.327 8.327 0 0 1 1.9 11.677zm29.252 8.667-5.931 8.157a8.459 8.459 0 0 1 -11.719 1.9 8.32 8.32 0 0 1 -1.9-11.667l5.942-8.171a8.448 8.448 0 0 1 11.707-1.9 8.324 8.324 0 0 1 1.9 11.676zm124.1-53.508a9.071 9.071 0 0 1 -2.232 6.663l-.262.3a9.963 9.963 0 0 1 -13.946 1.059l-30.746-26.317-.141-.121a6 6 0 0 0 -7.8 9.118l.136.116 22.3 19.086a9.567 9.567 0 0 1 .971 13.565 9.922 9.922 0 0 1 -13.889 1l-22.4-19.167a6 6 0 0 0 -7.8 9.117l15.447 13.219a9.57 9.57 0 0 1 1.009 13.6 9.922 9.922 0 0 1 -13.888 1l-15.447-13.219a6 6 0 0 0 -7.8 9.117l8.5 7.271a9.569 9.569 0 0 1 1.009 13.6 9.92 9.92 0 0 1 -13.889 1l-9.947-7.9a20.261 20.261 0 0 0 -18.465-23.735 20.265 20.265 0 0 0 -18.513-23.437 20.3 20.3 0 0 0 -17.713-23.38 20.395 20.395 0 0 0 -36.354-16.685l-1.524 2.1-8.523-7.042 42.037-79.289a42.577 42.577 0 0 1 15.834-1.295 36.056 36.056 0 0 0 -1.678 3.417l-6.662 16.08c-1.71 4.127-3.288 8.37-4.692 12.614l-6.648 20.1a6 6 0 0 0 3.274 7.373l1.432.632a34.916 34.916 0 0 0 33.477-2.559 33.811 33.811 0 0 0 15.176-25c.032-.334.062-.671.088-1.011.307-1.448 2.293-9.675 7.7-10.35l9.27 2.59a21.153 21.153 0 0 1 9.083 5.238l59.472 58.242 31.546 27a9.108 9.108 0 0 1 3.197 6.29zm-9.579-27.54-16.913-14.464-59.326-58.106a33.2 33.2 0 0 0 -14.251-8.222l-10.219-2.855a5.493 5.493 0 0 0 -1.639-.222c-6.991.029-12.951 3.917-16.783 10.949a33.875 33.875 0 0 0 -3.431 9.644l-.158 1.645a21.864 21.864 0 0 1 -9.841 16.15 23.049 23.049 0 0 1 -18.372 2.866l4.838-14.631c1.312-3.965 2.787-7.931 4.385-11.787l6.639-16.024a23.8 23.8 0 0 1 14.826-13.368l21.8-6.832a24.137 24.137 0 0 1 13.726-.22l22.592 6.289c10.913 3.039 18.97 3.318 29.73 1.033l2.616-.987 41.875 87.96a34.318 34.318 0 0 1 -12.095 11.182zm51.282-16.13a.875.875 0 0 1 -.488.5l-22 9.443a.955.955 0 0 1 -1.236-.435l-53.935-113.286a.777.777 0 0 1 -.022-.645.875.875 0 0 1 .512-.5l22.613-8.826a.96.96 0 0 1 1.207.449l53.322 112.668a.786.786 0 0 1 .026.632z"/><path d="m82.1 330.084a18.147 18.147 0 0 0 -6-35.378 6.188 6.188 0 1 1 -.256-12.37c.085 0 .17.013.256.013s.16-.009.24-.013a6.5 6.5 0 0 1 4.945 2.479 6 6 0 0 0 9.46-7.382 18.356 18.356 0 0 0 -8.645-6.133v-.752a6 6 0 0 0 -12 0v.778a18.146 18.146 0 0 0 6 35.377 6.2 6.2 0 1 1 0 12.383 6.519 6.519 0 0 1 -5.185-2.492 6 6 0 0 0 -9.459 7.382 18.363 18.363 0 0 0 8.644 6.134 6 6 0 0 0 12-.026z"/></svg>