<svg height="512pt" viewBox="0 -36 512 512" width="512pt" xmlns="http://www.w3.org/2000/svg"><path d="m70 240c-5.519531 0-10 4.480469-10 10s4.480469 10 10 10 10-4.480469 10-10-4.480469-10-10-10zm0 0"/><path d="m70 300c-5.519531 0-10 4.480469-10 10s4.480469 10 10 10 10-4.480469 10-10-4.480469-10-10-10zm0 0"/><path d="m432 260.558594v-190.558594c0-16.542969-13.457031-30-30-30h-183.71875c-2.628906 0-5.207031-1.066406-7.070312-2.933594l-28.28125-28.277344c-5.585938-5.585937-13.316407-8.789062-21.210938-8.789062h-131.71875c-16.542969 0-30 13.457031-30 30v320c0 16.542969 13.457031 30 30 30h307.140625c12.597656 35.691406 46.445313 60 84.859375 60 49.625 0 90-40.375 90-90 0-46.246094-35.0625-84.449219-80-89.441406zm-402-240.558594h131.71875c2.628906 0 5.207031 1.066406 7.070312 2.933594l28.28125 28.277344c5.585938 5.585937 13.316407 8.789062 21.210938 8.789062h183.71875c5.515625 0 10 4.484375 10 10v50h-392v-90c0-5.515625 4.484375-10 10-10zm-10 330v-210h392v120.558594c-44.9375 4.992187-80 43.195312-80 89.441406 0 3.347656.195312 6.6875.566406 10h-302.566406c-5.515625 0-10-4.484375-10-10zm402 70c-38.585938 0-70-31.265625-70-70 0-38.597656 31.402344-70 70-70s70 31.402344 70 70-31.402344 70-70 70zm0 0"/><path d="m429.070312 302.929688c-3.90625-3.90625-10.234374-3.90625-14.140624 0l-40 40c-3.90625 3.90625-3.90625 10.234374 0 14.140624s10.234374 3.90625 14.140624 0l22.929688-22.925781v55.855469c0 5.523438 4.476562 10 10 10s10-4.476562 10-10v-55.855469l22.929688 22.925781c3.90625 3.90625 10.234374 3.90625 14.140624 0 3.90625-3.902343 3.90625-10.234374 0-14.140624zm0 0"/><path d="m170 240h-60c-5.523438 0-10 4.476562-10 10s4.476562 10 10 10h60c5.523438 0 10-4.476562 10-10s-4.476562-10-10-10zm0 0"/><path d="m170 300h-60c-5.523438 0-10 4.476562-10 10s4.476562 10 10 10h60c5.523438 0 10-4.476562 10-10s-4.476562-10-10-10zm0 0"/></svg>